# File produced by Open Asset Import Library (http://www.assimp.sf.net)
# (assimp v3.1.187496374)

mtllib parabola.obj.mtl

# 92 vertex positions
v  -39.0875 96.9101 0
v  -61.997 54.997 0
v  -40 97 0
v  -39.0875 17.0899 0
v  -47.804 96.231 0
v  -55.307 93.955 0
v  -61.997 90.3798 0
v  -40 17 0
v  -47.804 17.769 0
v  -55.307 20.045 0
v  -61.997 23.6202 0
v  -61.997 74.4624 35.3465
v  -61.997 71.6978 40.6326
v  -54.6976 71.3768 58.2564
v  -56.629 68.111 60
v  -55.1648 69.8955 60
v  -54.6206 71.6206 57.9693
v  -61.997 78.997 26.6737
v  -57.1697 53.5846 67.4825
v  -56.7063 50.0799 65.7529
v  -56.7063 63.9201 65.7529
v  -57.3195 57 68.0415
v  -57.1697 60.4154 67.4825
v  -55.8845 46.3864 62.6862
v  -55.8845 67.6136 62.6862
v  -54.6206 42.3794 57.9693
v  -53.2047 75.0499 52.685
v  -54.4841 42.0487 57.4598
v  -52.7677 37.8916 51.0543
v  -51.95 36.3067 48.0026
v  -52.7677 76.1084 51.0543
v  -51.2246 79.1005 45.2952
v  -50.0762 32.6739 41.0096
v  -50.0762 81.3261 41.0096
v  -42.0358 57 11.003
v  -41.9637 55.999 10.734
v  -47.7234 28.9165 32.229
v  -41.9637 58.001 10.734
v  -48.576 83.7219 35.4108
v  -41.7673 58.734 10.001
v  -46.1017 87.6734 26.1766
v  -44.9556 89.2118 21.8995
v  -41.4991 59.003 9
v  -40 95.8649 3.40531
v  -41.2309 58.734 7.999
v  -39.8218 96.069 2.74025
v  -41.0345 58.001 7.266
v  -40.9624 57 6.997
v  -41.0345 55.999 7.266
v  -41.2309 55.266 7.999
v  -40 18.1351 3.40531
v  -41.4991 54.997 9
v  -40.2924 18.5277 4.49667
v  -41.7673 55.266 10.001
v  -46.1017 26.3266 26.1766
v  -59.616 60.902 60
v  -58.478 64.654 60
v  -60 57 60
v  -61.997 60.4462 52.9916
v  -61.997 57 54.009
v  -61.997 69.2191 44.1543
v  -61.997 66.1115 48.5728
v  -61.997 58.001 10.734
v  -61.997 37.9795 32.3655
v  -61.997 57 11.003
v  -61.997 58.734 10.001
v  -61.997 81.0171 21.9659
v  -61.997 59.003 9
v  -61.997 89.9208 1.2203
v  -61.997 58.734 7.999
v  -61.997 58.001 7.266
v  -61.997 90.0297 0.930743
v  -61.997 57 6.997
v  -61.997 55.999 7.266
v  -61.997 24.0792 1.2203
v  -61.997 24.2756 1.67801
v  -61.997 55.266 7.999
v  -61.997 54.997 9
v  -61.997 35.003 26.6737
v  -61.997 55.266 10.001
v  -61.997 55.999 10.734
v  -61.997 42.3022 40.6326
v  -61.997 45.8775 45.7154
v  -61.997 47.8885 48.5728
v  -61.997 64.6794 49.826
v  -61.997 51.5319 51.7608
v  -61.997 61.3757 52.7168
v  -61.997 52.6243 52.7168
v  -61.997 56.1896 53.7694
v  -59.616 53.098 60
v  -58.478 49.346 60
v  -56.629 45.889 60

# 0 UV coordinates

# 56 vertex normals
vn 0 0 -1
vn -0.733748 0.602055 0.314871
vn -0.733643 0.60219 0.314856
vn 0.965925 0 0.258823
vn -0.908278 0.275485 0.314862
vn -0.733753 0.60206 0.314851
vn -0.944576 0.0929567 0.314859
vn -0.836946 0.447646 0.314856
vn -0.837098 0.447356 0.314866
vn -0.836952 0.447649 0.314837
vn -1 0 0
vn 0.0929567 0.944576 0.314859
vn 0.0930769 0.944567 0.314848
vn -0.0930767 0.944565 0.314855
vn -0.0929572 0.94458 0.314844
vn -0.908284 -0.275487 0.314844
vn -0.733753 -0.60206 0.314851
vn 0 -0.259524 -0.965737
vn 0 -0.707107 -0.707107
vn 0 -0.965737 -0.259524
vn 0 -0.965737 0.259524
vn -0.60219 -0.733643 0.314856
vn 0 -0.707107 0.707107
vn 0 -0.259524 0.965737
vn 0 0.259524 0.965737
vn 0 0.707107 0.707107
vn 0 0.965737 0.259524
vn 0 0.965737 -0.259524
vn 0 0.707107 -0.707107
vn -0.447356 -0.837098 0.314866
vn 0 0.259524 -0.965737
vn -0.836946 -0.447646 0.314856
vn -0.447649 -0.836952 0.314837
vn -0.602055 -0.733748 0.314871
vn -0.908283 0.275487 0.314849
vn -0.908274 0.275521 0.314845
vn -0.944567 0.0930769 0.314848
vn -0.275487 -0.908283 0.314849
vn -0.275521 -0.908274 0.314845
vn -0.0929567 -0.944576 0.314859
vn -0.0930769 -0.944567 0.314848
vn 0.0930767 -0.944565 0.314855
vn -0.27552 0.908273 0.314848
vn -0.83694 -0.447643 0.314875
vn -0.275487 0.908284 0.314844
vn -0.733641 -0.602188 0.314866
vn -0.447643 0.83694 0.314875
vn -0.837103 -0.447359 0.314847
vn -0.447359 0.837103 0.314847
vn -0.602188 0.733641 0.314866
vn -0.60206 0.733753 0.314851
vn -0.944576 -0.0929567 0.314859
vn -0.944565 -0.0930767 0.314855
vn -0.94458 -0.0929572 0.314844
vn -0.908278 -0.275485 0.314862
vn -0.908273 -0.27552 0.314848

# Mesh '<STL_BINARY>' with 184 faces
g <STL_BINARY>
usemtl DefaultMaterial
f  1//1 2//1 3//1
f  1//1 4//1 2//1
f  3//1 2//1 5//1
f  6//1 5//1 2//1
f  7//1 6//1 2//1
f  8//1 2//1 4//1
f  9//1 2//1 8//1
f  2//1 9//1 10//1
f  2//1 10//1 11//1
f  12//2 13//2 14//2
f  13//2 15//2 14//2
f  16//2 14//2 15//2
f  14//3 17//3 12//3
f  18//3 12//3 17//3
f  19//4 20//4 21//4
f  22//4 19//4 23//4
f  23//4 19//4 21//4
f  20//4 24//4 25//4
f  25//4 21//4 20//4
f  24//4 26//4 16//4
f  16//4 25//4 24//4
f  27//4 17//4 26//4
f  14//4 16//4 26//4
f  17//4 14//4 26//4
f  26//4 28//4 27//4
f  29//4 30//4 27//4
f  31//4 27//4 30//4
f  28//4 29//4 27//4
f  32//4 31//4 30//4
f  30//4 33//4 32//4
f  34//4 32//4 33//4
f  34//4 33//4 35//4
f  36//4 35//4 33//4
f  37//4 36//4 33//4
f  35//4 38//4 34//4
f  34//4 38//4 39//4
f  40//4 39//4 38//4
f  39//4 40//4 41//4
f  42//4 41//4 40//4
f  40//4 43//4 42//4
f  42//4 43//4 44//4
f  43//4 45//4 44//4
f  46//4 44//4 45//4
f  47//4 1//4 45//4
f  1//4 46//4 45//4
f  47//4 48//4 1//4
f  1//4 48//4 4//4
f  49//4 4//4 48//4
f  50//4 4//4 49//4
f  4//4 50//4 51//4
f  52//4 53//4 50//4
f  53//4 51//4 50//4
f  54//4 55//4 52//4
f  53//4 52//4 55//4
f  36//4 37//4 54//4
f  55//4 54//4 37//4
f  23//5 21//5 56//5
f  21//5 57//5 56//5
f  25//6 16//6 15//6
f  56//7 58//7 23//7
f  59//7 60//7 56//7
f  58//7 56//7 60//7
f  22//7 23//7 58//7
f  15//8 57//8 25//8
f  57//8 21//8 25//8
f  13//9 61//9 15//9
f  15//10 61//10 62//10
f  15//10 62//10 57//10
f  12//11 18//11 63//11
f  13//11 12//11 64//11
f  65//11 64//11 12//11
f  63//11 65//11 12//11
f  66//11 63//11 18//11
f  67//11 66//11 18//11
f  66//11 67//11 68//11
f  69//11 68//11 67//11
f  68//11 69//11 70//11
f  70//11 69//11 71//11
f  71//11 69//11 2//11
f  72//11 2//11 69//11
f  73//11 71//11 2//11
f  74//11 73//11 2//11
f  75//11 76//11 2//11
f  74//11 2//11 76//11
f  11//11 75//11 2//11
f  7//11 2//11 72//11
f  77//11 74//11 76//11
f  78//11 77//11 76//11
f  76//11 79//11 78//11
f  80//11 78//11 79//11
f  80//11 79//11 81//11
f  79//11 64//11 81//11
f  81//11 64//11 65//11
f  64//11 82//11 13//11
f  61//11 13//11 82//11
f  82//11 83//11 61//11
f  62//11 61//11 83//11
f  84//11 85//11 83//11
f  62//11 83//11 85//11
f  86//11 85//11 84//11
f  85//11 86//11 59//11
f  87//11 85//11 59//11
f  88//11 59//11 86//11
f  89//11 59//11 88//11
f  59//11 89//11 60//11
f  44//12 46//12 3//12
f  46//13 1//13 3//13
f  42//14 44//14 5//14
f  3//14 5//14 44//14
f  41//15 42//15 5//15
f  90//16 86//16 91//16
f  84//16 91//16 86//16
f  26//17 64//17 79//17
f  92//17 64//17 26//17
f  92//17 26//17 24//17
f  63//18 38//18 35//18
f  63//18 35//18 65//18
f  38//19 63//19 66//19
f  38//19 66//19 40//19
f  40//20 66//20 68//20
f  40//20 68//20 43//20
f  43//21 68//21 70//21
f  43//21 70//21 45//21
f  26//22 79//22 28//22
f  28//22 79//22 76//22
f  45//23 70//23 71//23
f  45//23 71//23 47//23
f  73//24 48//24 47//24
f  73//24 47//24 71//24
f  48//25 73//25 49//25
f  74//25 49//25 73//25
f  49//26 74//26 50//26
f  77//26 50//26 74//26
f  50//27 77//27 52//27
f  78//27 52//27 77//27
f  52//28 78//28 54//28
f  80//28 54//28 78//28
f  54//29 80//29 36//29
f  81//29 36//29 80//29
f  10//30 30//30 75//30
f  11//30 10//30 75//30
f  30//30 29//30 75//30
f  65//31 35//31 81//31
f  36//31 81//31 35//31
f  24//32 20//32 91//32
f  91//32 92//32 24//32
f  10//33 33//33 30//33
f  75//34 29//34 76//34
f  28//34 76//34 29//34
f  57//35 85//35 87//35
f  57//35 87//35 56//35
f  62//36 85//36 57//36
f  87//37 59//37 56//37
f  55//38 37//38 9//38
f  37//39 33//39 10//39
f  37//39 10//39 9//39
f  51//40 53//40 8//40
f  53//41 55//41 9//41
f  53//41 9//41 8//41
f  4//42 51//42 8//42
f  39//43 41//43 6//43
f  5//43 6//43 41//43
f  82//44 92//44 83//44
f  91//44 83//44 92//44
f  39//45 6//45 34//45
f  82//46 64//46 92//46
f  32//47 69//47 31//47
f  72//47 69//47 32//47
f  84//48 83//48 91//48
f  6//49 7//49 72//49
f  6//49 72//49 34//49
f  32//49 34//49 72//49
f  27//50 31//50 67//50
f  69//50 67//50 31//50
f  17//51 27//51 18//51
f  67//51 18//51 27//51
f  22//52 58//52 19//52
f  90//52 19//52 58//52
f  58//53 60//53 89//53
f  88//54 90//54 89//54
f  58//54 89//54 90//54
f  19//55 90//55 20//55
f  91//55 20//55 90//55
f  88//56 86//56 90//56

