# File produced by Open Asset Import Library (http://www.assimp.sf.net)
# (assimp v3.1.187496374)

mtllib top.obj.mtl

# 57 vertex positions
v  -41.734 58.001 91.002
v  -41.734 58.001 98.003
v  -42.003 57 98.003
v  -42.003 57 91.002
v  -41.734 55.999 98.003
v  -41.734 55.999 91.002
v  -41.001 55.266 98.003
v  -41.001 55.266 91.002
v  -40 54.997 98.003
v  -40 54.997 91.002
v  -38.999 55.266 98.003
v  -38.999 55.266 91.002
v  -38.266 55.999 98.003
v  -38.266 55.999 91.002
v  -37.997 57 98.003
v  -37.997 57 91.002
v  -41.001 58.734 98.003
v  -40 59.003 98.003
v  -38.999 58.734 98.003
v  -38.266 58.001 98.003
v  -41.8858 47.5196 91.002
v  -43.6992 48.0696 91.002
v  -40 47.334 91.002
v  -45.3699 48.9632 91.002
v  -46.8348 50.1652 91.002
v  -48.0368 51.6301 91.002
v  -48.9304 53.3008 91.002
v  -49.4804 55.1142 91.002
v  -49.666 57 91.002
v  -49.4804 58.8858 91.002
v  -48.9304 60.6992 91.002
v  -48.0368 62.3699 91.002
v  -46.8348 63.8348 91.002
v  -41.001 58.734 91.002
v  -45.3699 65.0368 91.002
v  -41.8858 66.4804 91.002
v  -40 59.003 91.002
v  -43.6992 65.9304 91.002
v  -40 66.666 91.002
v  -38.1142 66.4804 91.002
v  -38.999 58.734 91.002
v  -36.3008 65.9304 91.002
v  -34.6301 65.0368 91.002
v  -33.1652 63.8348 91.002
v  -38.266 58.001 91.002
v  -31.9632 62.3699 91.002
v  -31.0696 60.6992 91.002
v  -30.5196 58.8858 91.002
v  -30.334 57 91.002
v  -30.5196 55.1142 91.002
v  -31.0696 53.3008 91.002
v  -33.1652 50.1652 91.002
v  -31.9632 51.6301 91.002
v  -34.6301 48.9632 91.002
v  -36.3008 48.0696 91.002
v  -38.1142 47.5196 91.002
v  -40 57 120

# 0 UV coordinates

# 45 vertex normals
vn 0.965737 -0.259524 0
vn 0.965737 0.259524 0
vn 0.707107 0.707107 0
vn 0.259524 0.965737 0
vn -0.259524 0.965737 0
vn -0.707107 0.707107 0
vn -0.965737 0.259524 0
vn 0 0 -1
vn -0.836946 0.447646 0.314856
vn -0.908278 0.275485 0.314862
vn -0.944576 0.0929567 0.314859
vn 0.0929567 0.944576 0.314859
vn -0.0929567 0.944576 0.314859
vn -0.275485 0.908278 0.314862
vn -0.447646 0.836946 0.314856
vn -0.60206 0.733753 0.314851
vn -0.733753 0.60206 0.314851
vn -0.965737 -0.259524 0
vn -0.707107 -0.707107 0
vn -0.259524 -0.965737 0
vn 0.259524 -0.965737 0
vn 0.707107 -0.707107 0
vn 0.836946 0.447646 0.314856
vn 0.733753 0.60206 0.314851
vn 0.60206 0.733753 0.314851
vn 0.447646 0.836946 0.314856
vn 0.275485 0.908278 0.314862
vn 0.733753 -0.60206 0.314851
vn 0.836946 -0.447646 0.314856
vn 0.908278 -0.275485 0.314862
vn 0.944576 -0.0929567 0.314859
vn 0.944576 0.0929567 0.314859
vn 0.908278 0.275485 0.314862
vn -0.275485 -0.908278 0.314862
vn -0.0929567 -0.944576 0.314859
vn 0.0929567 -0.944576 0.314859
vn 0.275485 -0.908278 0.314862
vn 0.447646 -0.836946 0.314856
vn 0.60206 -0.733753 0.314851
vn -0.944576 -0.0929567 0.314859
vn -0.908278 -0.275485 0.314862
vn -0.836946 -0.447646 0.314856
vn -0.733753 -0.60206 0.314851
vn -0.60206 -0.733753 0.314851
vn -0.447646 -0.836946 0.314856

# Mesh '<STL_BINARY>' with 110 faces
g <STL_BINARY>
usemtl DefaultMaterial
f  1//1 2//1 3//1
f  1//1 3//1 4//1
f  4//2 3//2 5//2
f  4//2 5//2 6//2
f  6//3 5//3 7//3
f  6//3 7//3 8//3
f  8//4 7//4 9//4
f  8//4 9//4 10//4
f  10//5 9//5 11//5
f  10//5 11//5 12//5
f  13//6 14//6 12//6
f  13//6 12//6 11//6
f  14//7 13//7 15//7
f  14//7 15//7 16//7
f  3//8 2//8 17//8
f  3//8 17//8 18//8
f  3//8 18//8 19//8
f  3//8 19//8 20//8
f  3//8 20//8 15//8
f  3//8 15//8 13//8
f  3//8 13//8 11//8
f  3//8 11//8 9//8
f  3//8 9//8 7//8
f  3//8 7//8 5//8
f  21//8 22//8 8//8
f  10//8 21//8 8//8
f  21//8 10//8 23//8
f  22//8 24//8 8//8
f  24//8 25//8 8//8
f  6//8 8//8 25//8
f  25//8 26//8 6//8
f  26//8 27//8 6//8
f  27//8 28//8 6//8
f  4//8 6//8 28//8
f  28//8 29//8 4//8
f  29//8 30//8 4//8
f  1//8 4//8 30//8
f  30//8 31//8 1//8
f  31//8 32//8 1//8
f  32//8 33//8 1//8
f  34//8 1//8 33//8
f  33//8 35//8 34//8
f  34//8 36//8 37//8
f  35//8 38//8 34//8
f  36//8 34//8 38//8
f  36//8 39//8 37//8
f  40//8 37//8 39//8
f  37//8 40//8 41//8
f  40//8 42//8 41//8
f  42//8 43//8 41//8
f  43//8 44//8 41//8
f  45//8 41//8 44//8
f  44//8 46//8 45//8
f  46//8 47//8 45//8
f  45//8 48//8 16//8
f  48//8 45//8 47//8
f  49//8 16//8 48//8
f  50//8 14//8 16//8
f  50//8 16//8 49//8
f  50//8 51//8 14//8
f  12//8 14//8 52//8
f  51//8 53//8 14//8
f  53//8 52//8 14//8
f  54//8 55//8 12//8
f  55//8 56//8 12//8
f  10//8 12//8 56//8
f  52//8 54//8 12//8
f  23//8 10//8 56//8
f  57//9 32//9 31//9
f  31//10 30//10 57//10
f  57//11 30//11 29//11
f  57//12 40//12 39//12
f  39//13 36//13 57//13
f  57//14 36//14 38//14
f  57//15 38//15 35//15
f  35//16 33//16 57//16
f  33//17 32//17 57//17
f  20//18 45//18 16//18
f  20//18 16//18 15//18
f  19//19 41//19 45//19
f  19//19 45//19 20//19
f  41//20 19//20 18//20
f  41//20 18//20 37//20
f  37//21 18//21 17//21
f  37//21 17//21 34//21
f  34//22 17//22 2//22
f  34//22 2//22 1//22
f  47//23 46//23 57//23
f  46//24 44//24 57//24
f  44//25 43//25 57//25
f  43//26 42//26 57//26
f  42//27 40//27 57//27
f  52//28 53//28 57//28
f  53//29 51//29 57//29
f  51//30 50//30 57//30
f  50//31 49//31 57//31
f  49//32 48//32 57//32
f  48//33 47//33 57//33
f  22//34 21//34 57//34
f  21//35 23//35 57//35
f  23//36 56//36 57//36
f  56//37 55//37 57//37
f  55//38 54//38 57//38
f  54//39 52//39 57//39
f  28//40 57//40 29//40
f  28//41 27//41 57//41
f  27//42 26//42 57//42
f  26//43 25//43 57//43
f  25//44 24//44 57//44
f  24//45 22//45 57//45

